<mxfile host="Electron" modified="2023-09-08T11:22:09.439Z" agent="Mozilla/5.0 (Windows NT 10.0; Win64; x64) AppleWebKit/537.36 (KHTML, like Gecko) draw.io/21.6.8 Chrome/114.0.5735.289 Electron/25.5.0 Safari/537.36" etag="P-LRT1UN5U_9oMvpVtHl" version="21.6.8" type="device">
  <diagram name="Page-1" id="yjhmY-5rV3cXuXDst49v">
    <mxGraphModel dx="1149" dy="692" grid="1" gridSize="10" guides="1" tooltips="1" connect="1" arrows="1" fold="1" page="1" pageScale="1" pageWidth="827" pageHeight="1169" math="0" shadow="0">
      <root>
        <mxCell id="0" />
        <mxCell id="1" parent="0" />
        <mxCell id="C4hUh0o3Q6fF1_rAbzl_-11" style="edgeStyle=orthogonalEdgeStyle;rounded=0;orthogonalLoop=1;jettySize=auto;html=1;" edge="1" parent="1" source="C4hUh0o3Q6fF1_rAbzl_-1" target="C4hUh0o3Q6fF1_rAbzl_-2">
          <mxGeometry relative="1" as="geometry" />
        </mxCell>
        <mxCell id="C4hUh0o3Q6fF1_rAbzl_-12" value="https" style="edgeLabel;html=1;align=center;verticalAlign=middle;resizable=0;points=[];" vertex="1" connectable="0" parent="C4hUh0o3Q6fF1_rAbzl_-11">
          <mxGeometry x="-0.1701" y="-4" relative="1" as="geometry">
            <mxPoint as="offset" />
          </mxGeometry>
        </mxCell>
        <mxCell id="C4hUh0o3Q6fF1_rAbzl_-17" style="edgeStyle=orthogonalEdgeStyle;rounded=0;orthogonalLoop=1;jettySize=auto;html=1;entryX=0.82;entryY=0;entryDx=0;entryDy=0;entryPerimeter=0;" edge="1" parent="1" target="C4hUh0o3Q6fF1_rAbzl_-4">
          <mxGeometry relative="1" as="geometry">
            <mxPoint x="354" y="202.66" as="sourcePoint" />
            <mxPoint x="258.45000000000005" y="326.50000000000006" as="targetPoint" />
          </mxGeometry>
        </mxCell>
        <mxCell id="C4hUh0o3Q6fF1_rAbzl_-20" value="https&lt;br&gt;" style="edgeLabel;html=1;align=center;verticalAlign=middle;resizable=0;points=[];" vertex="1" connectable="0" parent="C4hUh0o3Q6fF1_rAbzl_-17">
          <mxGeometry x="0.4338" y="2" relative="1" as="geometry">
            <mxPoint as="offset" />
          </mxGeometry>
        </mxCell>
        <mxCell id="C4hUh0o3Q6fF1_rAbzl_-1" value="" style="ellipse;shape=cloud;whiteSpace=wrap;html=1;" vertex="1" parent="1">
          <mxGeometry x="354" y="140" width="120" height="80" as="geometry" />
        </mxCell>
        <mxCell id="C4hUh0o3Q6fF1_rAbzl_-16" style="edgeStyle=orthogonalEdgeStyle;rounded=0;orthogonalLoop=1;jettySize=auto;html=1;" edge="1" parent="1" source="C4hUh0o3Q6fF1_rAbzl_-2" target="C4hUh0o3Q6fF1_rAbzl_-1">
          <mxGeometry relative="1" as="geometry">
            <Array as="points">
              <mxPoint x="580" y="210" />
            </Array>
          </mxGeometry>
        </mxCell>
        <mxCell id="C4hUh0o3Q6fF1_rAbzl_-19" value="https" style="edgeLabel;html=1;align=center;verticalAlign=middle;resizable=0;points=[];" vertex="1" connectable="0" parent="C4hUh0o3Q6fF1_rAbzl_-16">
          <mxGeometry x="0.1723" y="6" relative="1" as="geometry">
            <mxPoint as="offset" />
          </mxGeometry>
        </mxCell>
        <mxCell id="C4hUh0o3Q6fF1_rAbzl_-2" value="Password checker" style="image;aspect=fixed;perimeter=ellipsePerimeter;html=1;align=center;shadow=0;dashed=0;spacingTop=3;image=img/lib/active_directory/generic_server.svg;" vertex="1" parent="1">
          <mxGeometry x="580" y="270" width="28.000000000000004" height="50" as="geometry" />
        </mxCell>
        <mxCell id="C4hUh0o3Q6fF1_rAbzl_-9" style="edgeStyle=orthogonalEdgeStyle;rounded=0;orthogonalLoop=1;jettySize=auto;html=1;" edge="1" parent="1" source="C4hUh0o3Q6fF1_rAbzl_-4" target="C4hUh0o3Q6fF1_rAbzl_-1">
          <mxGeometry relative="1" as="geometry">
            <Array as="points">
              <mxPoint x="240" y="190" />
            </Array>
          </mxGeometry>
        </mxCell>
        <mxCell id="C4hUh0o3Q6fF1_rAbzl_-10" value="Https" style="edgeLabel;html=1;align=center;verticalAlign=middle;resizable=0;points=[];" vertex="1" connectable="0" parent="C4hUh0o3Q6fF1_rAbzl_-9">
          <mxGeometry x="-0.7334" y="2" relative="1" as="geometry">
            <mxPoint as="offset" />
          </mxGeometry>
        </mxCell>
        <mxCell id="C4hUh0o3Q6fF1_rAbzl_-18" style="edgeStyle=orthogonalEdgeStyle;rounded=0;orthogonalLoop=1;jettySize=auto;html=1;entryX=1;entryY=0.68;entryDx=0;entryDy=0;entryPerimeter=0;" edge="1" parent="1" source="C4hUh0o3Q6fF1_rAbzl_-4" target="C4hUh0o3Q6fF1_rAbzl_-5">
          <mxGeometry relative="1" as="geometry">
            <Array as="points">
              <mxPoint x="210" y="306" />
              <mxPoint x="210" y="306" />
            </Array>
          </mxGeometry>
        </mxCell>
        <mxCell id="C4hUh0o3Q6fF1_rAbzl_-21" value="response" style="edgeLabel;html=1;align=center;verticalAlign=middle;resizable=0;points=[];" vertex="1" connectable="0" parent="C4hUh0o3Q6fF1_rAbzl_-18">
          <mxGeometry x="-0.2143" relative="1" as="geometry">
            <mxPoint as="offset" />
          </mxGeometry>
        </mxCell>
        <mxCell id="C4hUh0o3Q6fF1_rAbzl_-4" value="Website" style="verticalLabelPosition=bottom;html=1;verticalAlign=top;align=center;strokeColor=none;fillColor=#00BEF2;shape=mxgraph.azure.website_generic;pointerEvents=1;" vertex="1" parent="1">
          <mxGeometry x="229" y="273.75" width="50" height="42.5" as="geometry" />
        </mxCell>
        <mxCell id="C4hUh0o3Q6fF1_rAbzl_-7" style="edgeStyle=orthogonalEdgeStyle;rounded=0;orthogonalLoop=1;jettySize=auto;html=1;entryX=0;entryY=0.5;entryDx=0;entryDy=0;entryPerimeter=0;" edge="1" parent="1" source="C4hUh0o3Q6fF1_rAbzl_-5" target="C4hUh0o3Q6fF1_rAbzl_-4">
          <mxGeometry relative="1" as="geometry">
            <Array as="points">
              <mxPoint x="229" y="280" />
            </Array>
          </mxGeometry>
        </mxCell>
        <mxCell id="C4hUh0o3Q6fF1_rAbzl_-8" value="password" style="edgeLabel;html=1;align=center;verticalAlign=middle;resizable=0;points=[];" vertex="1" connectable="0" parent="C4hUh0o3Q6fF1_rAbzl_-7">
          <mxGeometry x="0.0265" y="3" relative="1" as="geometry">
            <mxPoint as="offset" />
          </mxGeometry>
        </mxCell>
        <mxCell id="C4hUh0o3Q6fF1_rAbzl_-5" value="" style="outlineConnect=0;dashed=0;verticalLabelPosition=bottom;verticalAlign=top;align=center;html=1;shape=mxgraph.aws3.user;fillColor=#D2D3D3;gradientColor=none;" vertex="1" parent="1">
          <mxGeometry x="80" y="263.5" width="45" height="63" as="geometry" />
        </mxCell>
        <mxCell id="C4hUh0o3Q6fF1_rAbzl_-27" style="edgeStyle=orthogonalEdgeStyle;rounded=0;orthogonalLoop=1;jettySize=auto;html=1;" edge="1" parent="1" source="C4hUh0o3Q6fF1_rAbzl_-25" target="C4hUh0o3Q6fF1_rAbzl_-26">
          <mxGeometry relative="1" as="geometry" />
        </mxCell>
        <mxCell id="C4hUh0o3Q6fF1_rAbzl_-25" value="Plaintext" style="text;html=1;strokeColor=none;fillColor=none;align=center;verticalAlign=middle;whiteSpace=wrap;rounded=0;" vertex="1" parent="1">
          <mxGeometry x="90" y="490" width="60" height="30" as="geometry" />
        </mxCell>
        <mxCell id="C4hUh0o3Q6fF1_rAbzl_-26" value="Plaintext password database" style="image;aspect=fixed;perimeter=ellipsePerimeter;html=1;align=center;shadow=0;dashed=0;spacingTop=3;image=img/lib/active_directory/databases.svg;" vertex="1" parent="1">
          <mxGeometry x="569" y="480.5" width="50" height="49" as="geometry" />
        </mxCell>
        <mxCell id="C4hUh0o3Q6fF1_rAbzl_-28" style="edgeStyle=orthogonalEdgeStyle;rounded=0;orthogonalLoop=1;jettySize=auto;html=1;" edge="1" parent="1" source="C4hUh0o3Q6fF1_rAbzl_-31" target="C4hUh0o3Q6fF1_rAbzl_-30">
          <mxGeometry relative="1" as="geometry" />
        </mxCell>
        <mxCell id="C4hUh0o3Q6fF1_rAbzl_-29" value="Plaintext" style="text;html=1;strokeColor=none;fillColor=none;align=center;verticalAlign=middle;whiteSpace=wrap;rounded=0;" vertex="1" parent="1">
          <mxGeometry x="90" y="619.5" width="60" height="30" as="geometry" />
        </mxCell>
        <mxCell id="C4hUh0o3Q6fF1_rAbzl_-30" value="Hashed password database" style="image;aspect=fixed;perimeter=ellipsePerimeter;html=1;align=center;shadow=0;dashed=0;spacingTop=3;image=img/lib/active_directory/databases.svg;" vertex="1" parent="1">
          <mxGeometry x="569" y="610" width="50" height="49" as="geometry" />
        </mxCell>
        <mxCell id="C4hUh0o3Q6fF1_rAbzl_-32" value="" style="edgeStyle=orthogonalEdgeStyle;rounded=0;orthogonalLoop=1;jettySize=auto;html=1;" edge="1" parent="1" source="C4hUh0o3Q6fF1_rAbzl_-29" target="C4hUh0o3Q6fF1_rAbzl_-31">
          <mxGeometry relative="1" as="geometry">
            <mxPoint x="150" y="635" as="sourcePoint" />
            <mxPoint x="569" y="635" as="targetPoint" />
          </mxGeometry>
        </mxCell>
        <mxCell id="C4hUh0o3Q6fF1_rAbzl_-31" value="Hashed" style="text;html=1;strokeColor=none;fillColor=none;align=center;verticalAlign=middle;whiteSpace=wrap;rounded=0;" vertex="1" parent="1">
          <mxGeometry x="200" y="619.5" width="60" height="30" as="geometry" />
        </mxCell>
        <mxCell id="C4hUh0o3Q6fF1_rAbzl_-34" style="edgeStyle=orthogonalEdgeStyle;rounded=0;orthogonalLoop=1;jettySize=auto;html=1;" edge="1" parent="1" source="C4hUh0o3Q6fF1_rAbzl_-39" target="C4hUh0o3Q6fF1_rAbzl_-36">
          <mxGeometry relative="1" as="geometry" />
        </mxCell>
        <mxCell id="C4hUh0o3Q6fF1_rAbzl_-35" value="Plaintext" style="text;html=1;strokeColor=none;fillColor=none;align=center;verticalAlign=middle;whiteSpace=wrap;rounded=0;" vertex="1" parent="1">
          <mxGeometry x="90" y="729.5" width="60" height="30" as="geometry" />
        </mxCell>
        <mxCell id="C4hUh0o3Q6fF1_rAbzl_-36" value="" style="image;aspect=fixed;perimeter=ellipsePerimeter;html=1;align=center;shadow=0;dashed=0;spacingTop=3;image=img/lib/active_directory/databases.svg;" vertex="1" parent="1">
          <mxGeometry x="569" y="720" width="50" height="49" as="geometry" />
        </mxCell>
        <mxCell id="C4hUh0o3Q6fF1_rAbzl_-37" value="" style="edgeStyle=orthogonalEdgeStyle;rounded=0;orthogonalLoop=1;jettySize=auto;html=1;" edge="1" parent="1" source="C4hUh0o3Q6fF1_rAbzl_-35" target="C4hUh0o3Q6fF1_rAbzl_-38">
          <mxGeometry relative="1" as="geometry">
            <mxPoint x="150" y="745" as="sourcePoint" />
            <mxPoint x="569" y="745" as="targetPoint" />
          </mxGeometry>
        </mxCell>
        <mxCell id="C4hUh0o3Q6fF1_rAbzl_-38" value="Hashed" style="text;html=1;strokeColor=none;fillColor=none;align=center;verticalAlign=middle;whiteSpace=wrap;rounded=0;" vertex="1" parent="1">
          <mxGeometry x="200" y="729.5" width="60" height="30" as="geometry" />
        </mxCell>
        <mxCell id="C4hUh0o3Q6fF1_rAbzl_-41" value="" style="edgeStyle=orthogonalEdgeStyle;rounded=0;orthogonalLoop=1;jettySize=auto;html=1;" edge="1" parent="1" source="C4hUh0o3Q6fF1_rAbzl_-38" target="C4hUh0o3Q6fF1_rAbzl_-39">
          <mxGeometry relative="1" as="geometry">
            <mxPoint x="260" y="745" as="sourcePoint" />
            <mxPoint x="569" y="745" as="targetPoint" />
          </mxGeometry>
        </mxCell>
        <mxCell id="C4hUh0o3Q6fF1_rAbzl_-39" value="salted" style="text;html=1;strokeColor=none;fillColor=none;align=center;verticalAlign=middle;whiteSpace=wrap;rounded=0;" vertex="1" parent="1">
          <mxGeometry x="294" y="729.5" width="60" height="30" as="geometry" />
        </mxCell>
      </root>
    </mxGraphModel>
  </diagram>
</mxfile>
